HIERARCHY
ROOT Hips
{
	OFFSET -10.056300 7.733760 -472.550000
	CHANNELS 6 Xposition Yposition Zposition Zrotation Yrotation Xrotation 
	JOINT Spine
	{
		OFFSET 0.000000 0.000000 0.000000
		CHANNELS 3 Zrotation Yrotation Xrotation
		JOINT Spine1
		{
			OFFSET 19.000000 0.000000 0.000000
			CHANNELS 3 Zrotation Yrotation Xrotation
			JOINT Neck
			{
				OFFSET 22.500000 0.600000 0.000000
				CHANNELS 3 Zrotation Yrotation Xrotation
				JOINT Head
				{
					OFFSET 14.000000 0.030878 0.000000
					CHANNELS 3 Zrotation Yrotation Xrotation
					End Site
					{
						OFFSET 17.000000 0.000000 0.000000
					}
				}
			}
			JOINT LeftShoulder
			{
				OFFSET 19.800000 3.700000 4.300000
				CHANNELS 3 Zrotation Yrotation Xrotation
				JOINT LeftArm
				{
					OFFSET 8.000000 0.000000 0.000000
					CHANNELS 3 Zrotation Yrotation Xrotation
					JOINT LeftForeArm
					{
						OFFSET 15.200000 0.000000 0.000000
						CHANNELS 3 Zrotation Yrotation Xrotation
						JOINT LeftHand
						{
							OFFSET 17.800000 0.000000 0.000000
							CHANNELS 3 Zrotation Yrotation Xrotation
							End Site
							{
								OFFSET 7.200000 0.000000 0.000000
							}
						}
					}
				}
			}
			JOINT RightShoulder
			{
				OFFSET 19.800000 3.700000 -4.300000
				CHANNELS 3 Zrotation Yrotation Xrotation
				JOINT RightArm
				{
					OFFSET 8.000000 0.000000 0.151654
					CHANNELS 3 Zrotation Yrotation Xrotation
					JOINT RightForeArm
					{
						OFFSET 15.200000 0.000000 0.000000
						CHANNELS 3 Zrotation Yrotation Xrotation
						JOINT RightHand
						{
							OFFSET 17.800000 0.000000 0.000000
							CHANNELS 3 Zrotation Yrotation Xrotation
							End Site
							{
								OFFSET 7.200000 0.000000 0.000000
							}
						}
					}
				}
			}
		}
	}
	JOINT LeftUpLeg
	{
		OFFSET 5.984250 -7.666000 4.788790
		CHANNELS 3 Zrotation Yrotation Xrotation
		JOINT LeftLeg
		{
			OFFSET 16.000000 0.000000 0.000000
			CHANNELS 3 Zrotation Yrotation Xrotation
			JOINT LeftFoot
			{
				OFFSET 18.000000 0.000000 0.000000
				CHANNELS 3 Zrotation Yrotation Xrotation
				End Site
				{
					OFFSET 0.000000 -10.800000 0.000000
				}
			}
		}
	}
	JOINT RightUpLeg
	{
		OFFSET 5.984250 -7.665980 -4.788790
		CHANNELS 3 Zrotation Yrotation Xrotation
		JOINT RightLeg
		{
			OFFSET 16.000000 0.000000 0.000000
			CHANNELS 3 Zrotation Yrotation Xrotation
			JOINT RightFoot
			{
				OFFSET 18.000000 0.000000 0.000000
				CHANNELS 3 Zrotation Yrotation Xrotation
				End Site
				{
					OFFSET 0.000000 -10.800000 0.000000
				}
			}
		}
	}
	JOINT Tail
	{
		OFFSET 6.836960 -0.722574 0.000000
		CHANNELS 3 Zrotation Yrotation Xrotation
		JOINT Tail1
		{
			OFFSET 12.000000 0.000000 0.000000
			CHANNELS 3 Zrotation Yrotation Xrotation
			End Site
			{
				OFFSET 12.000000 0.000000 0.000000
			}
		}
	}
}
MOTION
Frames: 11
Frame Time: 0.033333
-0.623493 -0.586329 -4.725055 12.029812 -53.798710 -0.886103 -176.386017 12.493826 5.059861 -8.022787 14.735359 1.105498 1.215678 3.676624 -14.535384 -2.057471 19.229229 115.016853 48.221352 -29.866018 -137.104935 -79.616096 -51.798485 -150.265366 -71.509048 11.213132 15.527978 -29.204098 -9.990435 -2.354025 44.050262 35.553825 -68.775742 57.754791 -54.113682 61.058834 35.353050 -59.446808 -63.334911 5.376190 -17.901169 -3.330242 -101.982384 -10.619552 28.564997 61.449745 36.026611 74.455902 171.275284 -50.619839 -99.398537 -141.013947 3.986394 9.514559 80.615021 2.712308 -14.775985 57.149982 -14.234845 6.499357 -20.577242 -8.924667 -103.730446 -12.786437 -4.499564 -97.906540 
-1.086804 -0.872051 -9.305860 13.858665 -56.614971 -1.203417 -175.982666 13.597221 4.724129 -12.065688 11.678823 1.285778 4.427948 3.654764 -13.374261 -0.580096 18.033352 115.160889 45.769680 -29.922674 -134.992630 -88.165085 -50.036858 -150.847672 -74.899246 13.699019 17.527287 -30.241919 -12.003618 -2.339662 40.100895 34.405605 -69.516960 57.410435 -51.488697 52.045116 26.459080 -72.759766 -47.066792 9.523055 -10.203462 -5.905550 -97.803947 -13.385381 25.318026 62.689289 35.635918 74.184151 174.725967 -48.251495 -100.793480 -140.567734 4.195540 10.070634 82.289650 4.095314 -16.986834 48.962376 -15.138351 8.262447 -20.666241 -2.000965 -98.727402 -11.011886 -1.348254 -107.241333 
-1.430506 -0.561707 -13.787872 17.740337 -59.920319 -3.904913 -176.553253 15.378706 4.210922 -13.427485 6.439893 2.599585 7.180736 3.791572 -11.907302 0.764693 17.222925 114.927925 45.409901 -29.459625 -134.486069 -94.601654 -48.750862 -151.839188 -76.695251 17.832550 18.257080 -27.071455 -10.802791 -4.574509 36.721405 34.548897 -68.947395 52.120514 -50.283245 46.349354 -68.062500 -81.799408 61.494274 11.640950 -2.996789 -7.573714 -95.008926 -16.546728 21.924969 66.132515 33.854584 75.730286 178.860199 -44.186386 -102.510307 -142.789856 3.582951 9.253751 82.290756 4.972368 -19.321711 38.798382 -17.267563 9.366800 -22.362001 4.090251 -94.428894 -8.837077 0.274659 -116.667694 
-1.797715 0.162193 -18.383923 23.392666 -61.531609 -8.663543 -178.584686 17.275394 3.749051 -11.666724 -0.482968 4.504392 9.155872 4.379106 -10.325098 2.014535 17.246441 114.869339 47.886211 -27.438005 -135.649841 -94.375404 -48.374088 -156.134933 -74.410187 21.009930 18.402729 -22.921289 -9.544863 -7.210394 35.227451 36.152428 -66.223312 42.186470 -52.613823 45.895947 -92.360023 -67.639084 102.360008 8.733894 0.854812 -7.995619 -91.540939 -19.362518 17.346558 70.071449 30.839819 78.341606 -177.431595 -41.124264 -103.693741 -146.057678 1.707094 7.571181 79.785515 3.790173 -22.662243 34.751648 -19.972143 9.031960 -24.641973 10.779425 -91.740585 -5.135631 0.469118 -125.655472 
-2.231812 0.986933 -23.072226 28.627039 -61.486389 -13.585776 178.413589 18.318457 2.928153 -7.359560 -7.518359 5.766345 10.002448 5.475533 -9.208609 3.380231 17.438112 115.287971 51.802982 -25.234352 -138.163101 -87.948593 -46.605820 -162.814026 -69.740524 23.353649 17.696352 -22.029526 -7.502931 -8.258453 35.902218 38.190617 -62.569653 27.818066 -57.049732 55.546322 -81.574280 -61.086369 104.599083 2.555175 0.582043 -7.378428 -87.445778 -20.320135 12.048746 74.385468 26.015459 81.338318 -174.579987 -39.019341 -102.818733 -148.443390 -0.602525 5.469248 75.741814 0.386571 -26.116718 38.563534 -20.491310 7.436520 -27.139994 17.346676 -90.138687 -0.401945 0.177872 -133.001633 
-2.677684 1.681253 -27.830376 33.353146 -61.727974 -19.260122 175.112396 17.958513 1.548754 -1.473479 -12.658278 6.164772 9.247105 6.900858 -8.906748 4.777209 17.851048 116.711891 55.196190 -23.187933 -140.589844 -79.007172 -43.436592 -169.827469 -64.643829 26.071289 15.638136 -27.961840 -4.005953 -7.479417 37.459553 40.380081 -60.421085 14.013983 -60.306358 71.886452 -66.803223 -63.247433 96.624146 -2.250424 -2.985703 -5.720274 -84.874237 -18.382299 7.425726 78.956612 19.941277 83.854431 -173.234009 -39.006329 -100.769333 -148.219925 -3.032800 2.745113 71.871315 -4.049529 -28.473570 46.182640 -17.075289 6.992220 -29.497660 22.709742 -89.905594 4.491630 0.034841 -137.628815 
-3.168837 2.108409 -32.679848 37.304752 -63.778187 -25.546572 172.996216 15.584255 0.339864 3.569559 -14.558928 5.698553 7.625169 8.483036 -9.631505 5.545208 17.789629 118.016716 57.156788 -22.803503 -142.759018 -72.857292 -39.382069 -173.830841 -60.644951 29.044312 11.608094 -31.255751 2.155604 -6.352722 38.626568 42.126049 -61.798046 9.657536 -62.200619 83.487022 -54.416840 -68.810905 84.590546 -2.391777 -8.472608 -4.150079 -85.996254 -15.027380 4.448024 83.222015 14.239601 83.804596 -172.977097 -39.135479 -100.033440 -144.820328 -4.660577 -1.387874 69.208542 -8.358662 -29.940409 53.674603 -10.938927 8.744510 -32.025791 26.462637 -90.102119 8.338963 0.313831 -139.112564 
-3.676156 2.252059 -37.610046 42.536327 -67.534828 -33.230385 172.793518 11.123741 -0.496160 5.662423 -13.403948 4.838889 5.491763 9.835775 -10.742825 6.440246 17.089491 119.461983 57.364452 -23.842064 -144.339279 -72.866821 -35.100201 -173.718964 -58.741467 32.395336 7.338661 -25.368137 5.120480 -4.986802 37.852863 42.991512 -67.574745 16.218548 -64.920639 87.937027 -49.219608 -76.080017 74.665359 -4.376040 -12.828880 0.501221 -93.226906 -12.450631 3.236319 88.940735 9.873344 81.492256 -174.116974 -37.440109 -101.413521 -138.685059 -4.514188 -6.938581 68.306282 -12.266862 -29.911367 57.889900 -4.330349 11.385822 -34.971745 26.491306 -91.388123 9.834941 0.828758 -137.284042 
-4.164070 2.241146 -42.518837 50.219490 -72.244461 -42.616684 174.371613 5.203195 -0.963105 4.496175 -10.486837 3.727262 3.201566 10.867882 -11.879749 7.190575 16.022282 121.364273 55.024033 -25.075533 -144.521088 -77.923073 -32.046005 -169.763733 -58.322128 33.647388 3.749725 -1.020627 -0.292078 -1.483923 37.234779 42.707745 -74.298630 33.073387 -68.183678 85.486397 -20.609186 -84.874435 37.755737 -3.612025 -11.435416 0.617839 -106.761093 -11.081018 3.187387 94.809303 7.739458 77.965034 -176.327942 -36.263336 -105.695984 -130.311279 -2.978535 -13.063434 69.834595 -15.637852 -28.242140 57.189915 1.403265 12.945030 -37.508434 22.240564 -94.232193 9.197886 1.476306 -134.002991 
-4.645247 2.148455 -47.166664 63.518871 -77.388359 -56.948853 177.271927 -1.438820 -1.590045 2.417793 -6.481835 2.439926 0.344195 11.159572 -13.222377 7.540987 15.056026 123.187744 51.943775 -26.608656 -143.182388 -83.348778 -29.333776 -162.768936 -65.197716 32.147190 -2.044333 18.437429 0.225315 3.895335 37.534710 40.915878 -79.613808 52.865589 -70.230026 81.211960 68.904282 -78.142570 -62.670139 -6.490466 -8.115286 0.225741 -124.596687 -11.729557 4.174067 96.943169 8.140847 74.020401 -179.468048 -30.701448 -112.529366 -121.192810 -0.777640 -18.369104 71.895020 -18.266703 -25.067106 53.248219 5.839747 12.562261 -37.662560 15.729096 -98.669678 7.397941 1.844317 -130.813095 
-5.040566 2.051319 -51.641392 91.538322 -82.225945 -85.359360 -179.465576 -7.967687 -2.122817 1.132815 -1.965476 1.519289 -1.160893 10.860006 -14.047565 7.755166 14.224358 124.625702 47.508083 -29.011019 -140.461960 -87.289703 -29.384911 -151.946579 -75.572273 23.537937 -11.697393 28.910345 0.556677 6.715487 40.603527 38.624310 -80.777649 62.161911 -70.807816 87.468231 68.993340 -62.169449 -74.341469 -11.253753 -5.160542 0.721608 -138.080185 -15.287901 2.506674 87.366699 9.509217 69.049568 177.509476 -34.785107 -116.971939 -111.031265 0.188959 -22.045155 72.953148 -19.562351 -21.183352 48.988949 9.586564 11.601948 -32.622063 9.602981 -103.207359 4.774248 2.562742 -130.541199 
